<svg xmlns="http://www.w3.org/2000/svg" width="156" height="22" viewBox="0 0 156 22">
    <g fill="#ff9500" fill-rule="evenodd">
        <path d="M10.562 18.756l-4.917 2.68a1.418 1.418 0 0 1-2.078-1.478l.952-5.752-4.079-4.12a1.418 1.418 0 0 1 .797-2.401l5.59-.842L9.282 1.69a1.418 1.418 0 0 1 2.56 0l2.455 5.154 5.59.842a1.418 1.418 0 0 1 .797 2.4l-4.078 4.12.952 5.753a1.418 1.418 0 0 1-2.078 1.477l-4.918-2.679zM44.77 18.756l-4.918 2.68a1.418 1.418 0 0 1-2.078-1.478l.952-5.752-4.078-4.12a1.418 1.418 0 0 1 .796-2.401l5.59-.842L43.49 1.69a1.418 1.418 0 0 1 2.561 0l2.455 5.154 5.59.842a1.418 1.418 0 0 1 .797 2.4l-4.08 4.12.953 5.753a1.418 1.418 0 0 1-2.078 1.477l-4.917-2.679zM78.977 18.756l-4.917 2.68a1.418 1.418 0 0 1-2.078-1.478l.952-5.752-4.08-4.12a1.418 1.418 0 0 1 .798-2.401l5.59-.842 2.454-5.154a1.418 1.418 0 0 1 2.561 0l2.455 5.154 5.59.842a1.418 1.418 0 0 1 .797 2.4l-4.079 4.12.952 5.753a1.418 1.418 0 0 1-2.078 1.477l-4.917-2.679zM111.172 18.756l-4.917 2.68a1.418 1.418 0 0 1-2.078-1.478l.952-5.752-4.079-4.12a1.418 1.418 0 0 1 .797-2.401l5.59-.842 2.454-5.154a1.418 1.418 0 0 1 2.562 0l2.454 5.154 5.59.842a1.418 1.418 0 0 1 .797 2.4l-4.079 4.12.952 5.753a1.418 1.418 0 0 1-2.078 1.477l-4.917-2.679zM145.38 18.756l-4.918 2.68a1.418 1.418 0 0 1-2.078-1.478l.952-5.752-4.079-4.12a1.418 1.418 0 0 1 .797-2.401l5.59-.842L144.1 1.69a1.418 1.418 0 0 1 2.56 0l2.455 5.154 5.59.842a1.418 1.418 0 0 1 .797 2.4l-4.078 4.12.952 5.753a1.418 1.418 0 0 1-2.078 1.477l-4.918-2.679z"/>
    </g>
</svg>
